<?xml version="1.0" standalone="no"?>
<svg xmlns="http://www.w3.org/2000/svg" width="190.6" height="94.36" viewBox="0 0 190.6 94.36"><g fill="#f3d707" color="#f3d707" transform="translate(70.3 0) scale(0.5)"><svg width="100.0" height="100.0" x="0.0" y="0.0" viewBox="0 0 100 100"><path d="M25.933,83.946c-0.961,0-1.648-0.046-2.131-0.624c-0.73-0.292-1.406-0.667-1.704-0.84c-0.037-0.009-0.079-0.017-0.123-0.026  c-0.44-0.096-1.178-0.255-1.747-0.816l-0.167-0.161c-0.73-0.693-2.248-2.136-2.62-3.837c-0.232-1.06-0.072-3.009,0.475-5.807  c-1.874,0.044-4.293-0.266-6.537-0.586c-0.546-0.078-0.947-0.139-1.113-0.147l-0.289-0.013c-2.016-0.097-2.772-0.078-3.055-0.047  c-0.334,0.161-0.738,0.171-1.094-0.014c-0.602-0.309-0.838-1.048-0.529-1.649c0.443-0.862,1.247-0.906,4.794-0.737l0.277,0.013  c0.199,0.009,0.688,0.074,1.354,0.169c1.584,0.226,5.065,0.719,6.826,0.524c0.161-0.391,0.394-0.912,0.718-1.631  c-2.509,0.051-4.692-0.251-6.499-3.383c-0.874-1.516-0.227-3.172,0.16-4.162c0.061-0.154,0.116-0.296,0.158-0.419  c0.094-0.283,0.272-0.619,0.542-1.128c0.808-1.524,2.313-4.36,2.87-8.233c0.003-0.021,0.006-0.041,0.01-0.062  c-0.196-0.531-0.388-1.083-0.548-1.6c-0.069,0.123-0.117,0.241-0.142,0.352c-0.148,0.66-0.8,1.076-1.464,0.926  c-0.66-0.149-1.074-0.805-0.925-1.465c0.609-2.703,5.414-5.311,7.875-6.485c-0.403-1.243-0.504-2.731-0.51-2.821  c-0.052-0.82,0.416-1.651,0.984-2.345c-0.413-0.378-0.751-0.89-1.011-1.424c-0.35,0.131-0.754,0.098-1.091-0.12  c-0.097-0.063-0.183-0.138-0.256-0.221c-0.14,0.632-0.354,1.421-0.673,2.407c-0.626,1.94-3.496,4.066-6.221,5.89l-0.259,0.174  c-0.56,0.381-1.321,0.232-1.701-0.329c-0.378-0.561-0.231-1.321,0.329-1.7l0.268-0.181c3.97-2.656,5.047-3.971,5.251-4.605  c0.59-1.827,0.784-2.993,0.796-3.353c-0.394-0.936-1.775-4.642-1.875-6.113c-0.069-1.021-0.088-1.998-0.094-2.465  c-0.44-0.927-1.738-3.825-1.676-5.631c0.043-1.249,0.022-1.651,0.016-1.737c-0.1-0.585,0.239-1.173,0.82-1.367  c0.643-0.215,1.335,0.133,1.55,0.773c0.059,0.177,0.132,0.396,0.063,2.415c-0.007,0.21,0.023,0.469,0.082,0.759  c0.115,0.252,0.398,0.877,0.568,1.301c0.219,0.215,0.842,0.662,1.228,0.938c0.566,0.406,1.056,0.757,1.363,1.063  c0.54,0.54,1.823,1.627,2.504,2.172c0.195,0.134,0.931,0.28,1.624,0.331c0.592-0.283,1.818-0.728,3.689-0.728  c1.758,0,3.79,0.545,4.448,0.735c0.729-0.043,1.545-0.199,1.755-0.344c0.723-0.579,1.982-1.633,2.499-2.149  c0.304-0.305,0.791-0.655,1.354-1.061c0.388-0.279,1.017-0.731,1.235-0.948c0.169-0.422,0.45-1.044,0.566-1.3  c0.06-0.294,0.091-0.557,0.084-0.77c-0.07-2.02,0.003-2.238,0.063-2.415c0.214-0.641,0.905-0.988,1.55-0.773  c0.581,0.194,0.92,0.782,0.82,1.367c-0.006,0.086-0.027,0.489,0.016,1.737c0.063,1.806-1.236,4.704-1.675,5.63  c-0.005,0.468-0.024,1.444-0.094,2.467c-0.077,1.122-0.898,3.543-1.458,5.044c0.938,1.304,2.387,3.12,3.23,3.688  c0.672,0.452,1.435,0.721,2.243,1.006c0.804,0.283,1.634,0.575,2.411,1.067c0.675,0.428,1.108,0.843,1.49,1.21  c0.49,0.471,0.845,0.811,1.68,1.162c1.646,0.693,13.631,3.262,20.218,1.393c3.809-1.08,7.397-1.254,10.667-0.518  c2.59,0.585,7.215,2.156,9.237,6.122l0.062,0.078c3.088,3.796,3.737,8.349,3.737,11.499c0,0.409-0.034,0.744-0.066,1.047  c-0.064,0.607-0.082,0.771,0.264,1.347l0.446,0.731c0.796,1.294,1.234,2.008,0.84,3.32c-0.357,1.191-2.084,2.23-3.474,2.454  c-1.198,0.193-2.226-0.184-2.82-1.033c-0.229-0.326-0.454-0.741-0.672-1.213c-0.42,0.533-0.979,1.023-1.674,1.469  c-1.417,0.909-3.609,0.083-5.372-0.58c-0.386-0.146-0.913-0.344-1.072-0.371c-1.828,0.005-8.353,0.152-10.112,0.328  c-0.709,0.071-1.25,0.156-1.738,0.232c-0.782,0.123-1.52,0.238-2.571,0.238c-0.475,0-1.266,0.112-2.031,0.221  c-2.396,0.34-3.791,0.492-4.604-0.321c-0.169-0.17-0.513-0.57-0.871-1.094c-2.536,0.331-9.293,0.479-12.279-0.133  c-0.039-0.008-1.97-0.414-4.046-0.896c-0.075,0.253-0.174,0.528-0.294,0.83c-0.276,0.696-0.854,1.032-1.501,1.188  c0.079,0.485,0.028,1.199-0.57,2.006c-0.227,0.306-0.654,0.514-1.206,0.646c0.913,0.013,1.822,0.015,2.726-0.006  c2.388-0.053,4.829-0.402,7.188-0.739c2.649-0.378,5.388-0.77,8.159-0.771c1.027-0.044,2.063,0.041,3.093,0.082  c1.291,0.051,2.627,0.106,3.92,0.066c1.719-0.052,3.298-0.422,4.969-0.813c0.512-0.12,1.028-0.241,1.553-0.354  c1.846-0.404,3.365,0.429,4.704,1.157c0.644,0.35,1.251,0.681,1.836,0.849c1.558,0.447,13.705,0.983,15.47,0.906  c0.673-0.023,1.247,0.494,1.276,1.171c0.029,0.676-0.495,1.247-1.171,1.276c-1.616,0.083-14.247-0.422-16.251-0.998  c-0.845-0.242-1.601-0.654-2.333-1.053c-1.103-0.602-2.055-1.116-3.017-0.914c-0.51,0.11-1.012,0.228-1.51,0.345  c-1.716,0.401-3.489,0.817-5.454,0.877c-1.38,0.039-2.759-0.015-4.093-0.067c-0.992-0.04-1.985-0.081-2.979-0.081  c-0.005,0-0.01,0-0.015,0c-2.598,0.001-5.249,0.38-7.813,0.747c-2.432,0.347-4.946,0.706-7.48,0.763  c-3.45,0.076-6.93-0.129-10.3-0.328c-0.561-0.033-1.12-0.066-1.678-0.099c0.025,0.21,0.045,0.43,0.059,0.652  c0.02,0.329-0.025,0.942-0.113,2.087c-0.071,0.929-0.19,2.482-0.148,2.833c0.047,0.226,0.197,0.374,0.551,0.675  c0.412,0.35,1.035,0.878,1.035,1.809C29.973,82.06,28.236,83.946,25.933,83.946z M25.457,81.487c0.104,0.005,0.257,0.01,0.477,0.01  c1.016,0,1.518-0.871,1.582-1.745c-0.05-0.045-0.106-0.088-0.163-0.137c-0.428-0.362-1.144-0.97-1.372-2.08  c-0.103-0.502-0.042-1.494,0.11-3.482c0.05-0.655,0.119-1.553,0.11-1.755c-0.044-0.733-0.198-1.462-0.234-1.603  c-0.325-0.973,0.635-1.484,1.045-1.703c0.212-0.112,0.708-0.376,0.827-0.528c0.625-0.812,3.422-2.992,3.45-3.014  c0.195-0.15,0.428-0.324,0.691-0.521c1.405-1.047,3.757-2.8,5.415-4.983c0.576-0.759,1.021-1.821,1.414-2.76  c0.583-1.394,0.969-2.314,1.875-2.595c0.645-0.204,1.333,0.161,1.532,0.808c0.17,0.551-0.067,1.131-0.541,1.414  c-0.154,0.239-0.413,0.856-0.606,1.319c-0.427,1.02-0.958,2.288-1.723,3.296c-0.08,0.104-0.16,0.208-0.242,0.311  c1.637,0.428,4.309,1.063,6.792,1.572c2.663,0.546,8.236,0.366,10.688,0.187c-0.078-0.368-0.098-0.732-0.034-1.074  c0.336-1.801,1.902-3.599,3.286-3.773c1.808-0.224,3.582-0.123,5.279,0.301c0.022,0.006,0.045,0.012,0.068,0.017  c-0.201-0.171-0.387-0.352-0.551-0.544c-2.095-2.444-2.684-6.186-1.313-8.34c1.872-2.94,5.882-3.294,6.052-3.308  c0.661-0.059,1.265,0.447,1.319,1.123c0.054,0.673-0.447,1.263-1.121,1.318c-0.076,0.007-2.983,0.295-4.185,2.183  c-0.777,1.221-0.239,3.859,1.106,5.43c0.813,0.949,2.959,1.688,4.112,2.085c1.105,0.381,1.979,0.682,1.9,1.716  c-0.035,0.454-0.354,1.035-1.14,1.179c-1.162,0.211-4.404,0.127-6.844-0.481c-1.403-0.352-2.877-0.435-4.38-0.246  c-0.227,0.092-1.016,0.901-1.182,1.791c-0.01,0.17,0.123,0.512,0.324,0.893c0.272-0.793,0.727-1.562,1.484-1.995  c0.536-0.306,1.707-0.368,1.718-0.369c0.674-0.039,1.248,0.489,1.28,1.164c0.033,0.676-0.489,1.25-1.164,1.283  c-0.13,0.007-0.487,0.054-0.674,0.092c-0.149,0.146-0.326,0.536-0.448,1.069c0.467-0.052,0.957-0.122,1.337-0.176  c0.889-0.126,1.728-0.244,2.375-0.244c0.86,0,1.447-0.093,2.191-0.209c0.527-0.083,1.11-0.174,1.874-0.25  c1.956-0.196,8.723-0.335,10.437-0.335c0.445,0,0.916,0.169,1.853,0.522c0.736,0.276,2.691,1.016,3.206,0.8  c1.869-1.199,1.543-2.32,1.349-2.99c-0.054-0.185-0.086-0.328-0.098-0.421c-0.09-0.724,0.201-2.135,0.84-4.962  c0.112-0.497,0.222-0.981,0.318-1.426c0.458-2.108,0.405-5.912,0.104-6.643c-0.007-0.014-0.014-0.028-0.02-0.042  c-1.555-3.096-5.432-4.383-7.609-4.874c-2.866-0.648-6.048-0.483-9.458,0.484c-7.286,2.064-19.754-0.614-21.837-1.492  c-1.254-0.527-1.877-1.125-2.426-1.653c-0.342-0.327-0.637-0.61-1.104-0.906c-0.542-0.344-1.209-0.578-1.915-0.827  c-0.875-0.309-1.866-0.657-2.797-1.284c-0.47-0.316-0.992-0.811-1.505-1.365c0.007,0.021,0.014,0.044,0.021,0.065  c0.43,1.335,3.134,2.679,4.434,3.325l0.249,0.124c0.605,0.303,0.851,1.039,0.548,1.644c-0.303,0.605-1.04,0.849-1.644,0.548  l-0.244-0.122c-1.843-0.916-4.928-2.45-5.675-4.767c-0.431-1.336-0.671-2.309-0.794-3.023c-0.064,0.112-0.148,0.217-0.25,0.308  c-0.338,0.299-0.795,0.375-1.195,0.247c-0.252,0.592-0.599,1.189-1.039,1.652c0.624,0.719,1.185,1.625,1.128,2.519  c-0.006,0.091-0.108,1.604-0.52,2.853c2.036,1.132,5.109,3.084,5.517,4.744c0.161,0.657-0.241,1.32-0.898,1.481  c-0.65,0.165-1.31-0.234-1.478-0.883c-0.064-0.159-0.257-0.381-0.547-0.644c0.059,0.515,0.116,1.116,0.168,1.816  c0.05,0.675-0.456,1.263-1.131,1.313c-0.591,0.042-1.133-0.353-1.277-0.917c0.151,2.543-0.917,4.105-1.445,4.877  c-0.065,0.096-0.122,0.174-0.157,0.237c-0.256,0.627-0.962,0.901-1.587,0.646c-0.626-0.257-0.916-0.995-0.659-1.621  c0.091-0.222,0.225-0.418,0.381-0.646c0.451-0.659,1.205-1.763,0.994-3.663c-0.165-1.484-1.006-2.485-1.57-3.001  c-0.667,0.45-1.489,0.707-2.392,0.713c-0.01,0-0.02,0-0.03,0c-0.924,0-1.768-0.268-2.448-0.74c-0.55,0.547-1.247,1.488-1.397,2.841  c-0.211,1.902,0.543,3.005,0.994,3.664c0.155,0.228,0.29,0.424,0.38,0.646c0.256,0.626-0.043,1.341-0.67,1.598  c-0.628,0.258-1.341-0.044-1.598-0.67c-0.014-0.017-0.07-0.095-0.135-0.19c-0.528-0.772-1.597-2.335-1.444-4.88  c-0.144,0.566-0.688,0.957-1.278,0.92c-0.675-0.05-1.181-0.638-1.131-1.313c0.072-0.973,0.144-1.718,0.212-2.291  c-0.37,0.235-0.721,0.472-1.044,0.706c0.057,0.1,0.101,0.21,0.128,0.328c0.302,1.303,1.22,3.628,1.628,4.509  c0.591,1.277,2.615,3.788,3.5,4.578c0.489,0.436,1.427,0.978,2.148,1.374c0.407-0.816,0.636-1.678,0.501-2.666  c-0.092-0.671,0.376-1.289,1.047-1.381c0.672-0.089,1.288,0.378,1.38,1.047c0.383,2.792-1.068,4.821-2.235,6.453  c-0.361,0.504-0.702,0.981-0.949,1.424c-0.261,0.47-0.627,0.962-1.015,1.483c-0.638,0.859-1.36,1.832-1.772,2.899  c-0.006,0.019-0.013,0.036-0.021,0.054c-0.148,0.384-0.449,1.054-0.761,1.744c-0.313,0.694-0.785,1.74-0.863,2.01  c-0.002,0.008-0.004,0.017-0.006,0.025c-0.823,3.707-0.963,5.741-0.818,6.403c0.179,0.817,1.091,1.784,1.65,2.331  c-0.241-0.823-0.402-1.772-0.396-2.831c0.004-0.674,0.552-1.218,1.225-1.218c0.002,0,0.004,0,0.007,0  c0.676,0.003,1.222,0.555,1.218,1.231c-0.013,2.429,1.158,4.099,1.546,4.584C25.238,81.302,25.359,81.395,25.457,81.487z   M30.624,69.166c0.289,0.018,0.579,0.034,0.869,0.052c-0.27-0.056-0.517-0.111-0.735-0.168  C30.712,69.09,30.667,69.128,30.624,69.166z M33.236,67.049c1.439,0.175,3.101,0.239,3.83,0.133  c-0.127-0.105-0.334-0.223-0.416-0.269c-0.853-0.482-0.892-1.097-0.774-1.526c0.043-0.157,0.279-0.908,1.33-0.922  c0.136,0.002,0.295,0.01,0.467,0.019c0.284,0.015,0.889,0.043,1.214-0.004c0.036-0.096,0.064-0.176,0.087-0.243  c-0.661-0.169-1.26-0.334-1.724-0.479c-1.392,1.338-2.817,2.4-3.807,3.138C33.373,66.947,33.303,66.999,33.236,67.049z   M88.505,60.755c0.071,0.167,0.127,0.342,0.18,0.505c0.296,0.918,1.082,3.357,1.722,4.271c0.029,0.023,0.178,0.068,0.494,0.006  c0.675-0.135,1.354-0.611,1.483-0.816c0.037-0.156,0.042-0.171-0.618-1.243l-0.459-0.755c-0.767-1.278-0.682-2.085-0.599-2.864  c0.024-0.228,0.052-0.48,0.052-0.789c0-2.102-0.295-4.022-0.881-5.749c-0.068,0.964-0.181,1.859-0.325,2.521  c-0.098,0.449-0.208,0.94-0.322,1.444C89,58.305,88.653,59.84,88.505,60.755z M18.218,53.998c-0.771,2.659-1.832,4.656-2.425,5.774  c-0.162,0.305-0.345,0.65-0.383,0.757c-0.052,0.156-0.122,0.337-0.199,0.534c-0.256,0.654-0.606,1.55-0.32,2.046  c1.275,2.211,2.488,2.188,5.133,2.148c0.105-0.002,0.212-0.004,0.32-0.005c0.52-1.058,1.197-1.97,1.763-2.731  c0.338-0.455,0.658-0.885,0.841-1.214c0.307-0.551,0.677-1.071,1.069-1.62c-0.815-0.451-1.812-1.041-2.451-1.61  C20.741,57.34,19.222,55.533,18.218,53.998z M31.729,44.169c0.822,0.794,1.862,2.148,2.16,4.103  c-0.218-2.583-0.495-3.401-0.498-3.409c-0.009-0.026-0.017-0.052-0.024-0.078c-0.424-0.256-0.867-0.512-1.319-0.758  C31.942,44.08,31.836,44.127,31.729,44.169z M21.61,45.197c-0.03,0.109-0.181,0.747-0.355,2.905c0.271-1.812,1.18-3.109,1.967-3.925  c-0.116-0.043-0.231-0.094-0.344-0.151c-0.395,0.181-0.794,0.373-1.189,0.572C21.712,44.797,21.688,45.003,21.61,45.197z   M26.721,43.938c0.254,0.109,0.499,0.12,0.794,0.154c0.232-0.002,0.488-0.044,0.728-0.14c-0.279-0.113-0.541-0.239-0.779-0.371  C27.235,43.708,26.986,43.829,26.721,43.938z M23.9,41.812c0.148,0.104,0.326,0.156,0.517,0.17c0.135-0.029,0.271-0.034,0.4-0.019  c0.497-0.072,1.024-0.309,1.382-0.495V40.95l-0.506,0.01c-0.467,0-0.88-0.236-1.099-0.636l-0.716-1.306  c-0.109-0.199-0.157-0.416-0.15-0.629c-0.267,0.312-0.459,0.594-0.489,0.75c0.066,0.958,0.354,2.212,0.549,2.563  C23.827,41.736,23.865,41.772,23.9,41.812z M28.649,41.425c0.617,0.328,1.874,0.867,2.529,0.243  c0.133-0.226,0.439-1.535,0.506-2.588c-0.036-0.155-0.311-0.516-0.68-0.906c-0.001,0.176-0.041,0.354-0.123,0.523l-0.729,1.504  c-0.201,0.414-0.617,0.682-1.078,0.69L28.649,40.9V41.425z M25.021,37.206c0.408,0.023,0.794,0.25,1.005,0.635l0.359,0.654  l1.89-0.038l0.401-0.828c0.156-0.321,0.433-0.544,0.75-0.639c-0.494-0.418-0.877-0.958-1.04-1.38  c-0.002-0.006-0.005-0.013-0.007-0.019l0,0c0-0.001-0.001-0.003-0.001-0.004c0,0,0-0.001,0-0.002l0,0  c-0.077-0.212-0.092-0.432-0.054-0.64l0.394-2.362c0.088-0.53,0.512-0.94,1.044-1.013c3.487-0.474,3.82-0.213,4.172,0.06  c0.323,0.252,1.02,1.021,1.407,1.458c0.014,0.017,0.028,0.032,0.042,0.05c0.027-0.352,0.111-0.519,0.164-0.623  c0.03-0.063,0.081-0.187,0.147-0.355c0.016-0.047,0.034-0.094,0.055-0.14c0.281-0.729,0.76-2.06,1.103-3.187  c-0.564,0.668-1.178,1.36-1.744,1.983c-0.454,0.501-1.229,0.539-1.73,0.084s-0.539-1.229-0.084-1.73  c0.5-0.552,1.033-1.157,1.519-1.729c-0.003,0.002-0.006,0.005-0.009,0.007c-0.944,0.756-2.839,0.868-3.397,0.885  c-0.134,0-0.272-0.015-0.401-0.056c-0.022-0.007-2.223-0.688-3.93-0.688c-1.833,0-2.742,0.546-2.751,0.551  c-0.203,0.125-0.463,0.189-0.696,0.193c-0.558-0.017-2.453-0.129-3.397-0.885c-0.003-0.003-0.007-0.006-0.011-0.009  c0.486,0.57,1.019,1.178,1.521,1.73c0.455,0.501,0.417,1.275-0.084,1.73c-0.5,0.455-1.275,0.417-1.73-0.084  c-0.566-0.624-1.18-1.315-1.745-1.984c0.455,1.5,1.154,3.361,1.309,3.691c0.053,0.105,0.139,0.278,0.163,0.651  c0.229-0.3,0.529-0.643,0.879-0.932c0.036-0.032,0.074-0.063,0.114-0.091c0.385-0.294,0.825-0.515,1.297-0.544  c0.772-0.048,2.722-0.006,2.94-0.002c0.558,0.013,1.037,0.4,1.165,0.943l0.601,2.543c0.057,0.226,0.05,0.471-0.034,0.705  c0,0.001,0,0.002-0.001,0.003l0,0c-0.004,0.012-0.008,0.023-0.013,0.034c-0.204,0.525-0.697,0.958-1.471,1.293L25.021,37.206z   M22.817,34.037c0.182,0.462,0.434,0.929,0.641,1.072c0.181-0.047,0.357-0.104,0.512-0.16l0.109-0.078l-0.196-0.83  C23.532,34.037,23.153,34.033,22.817,34.037z M30.848,34.71l0.378,0.342c0.234-0.246,0.507-0.767,0.686-1.252  c-0.284,0.022-0.603,0.054-0.927,0.09L30.848,34.71z M11.186,46.788c-0.577,0-1.09-0.409-1.202-0.997  c-0.126-0.665,0.311-1.306,0.975-1.432c1.979-0.376,4.511-1.789,6.773-3.779c0.507-0.446,1.282-0.396,1.729,0.11  c0.447,0.509,0.397,1.282-0.111,1.729c-1.238,1.089-4.488,3.691-7.935,4.346C11.339,46.78,11.262,46.788,11.186,46.788z   M43.542,46.643c-0.119,0-0.239-0.018-0.358-0.054c-1.995-0.609-4.371-1.94-7.063-3.957l-0.131-0.098  c-0.548-0.397-0.67-1.163-0.273-1.711c0.397-0.549,1.163-0.67,1.711-0.273l0.163,0.121c3.07,2.3,5.125,3.213,6.309,3.574  c0.647,0.198,1.012,0.883,0.814,1.529C44.552,46.303,44.066,46.643,43.542,46.643z"></path></svg></g><path fill="#f3d707" fill-rule="nonzero" d="M11.88 0.84L12.64 0.84L24.60 28.96L22.04 28.96L18.16 19.88L6.36 19.88L2.56 28.96L0 28.96L11.88 0.84ZM11.28 8.28L7.32 17.60L17.20 17.60L13.24 8.28Q12.92 7.52 12.66 6.66Q12.40 5.80 12.24 5.16L12.24 5.16Q12.08 5.84 11.84 6.70Q11.60 7.56 11.28 8.28L11.28 8.28ZM48.60 28.96L46.04 28.96L43.24 20.64Q42.88 19.52 42.48 18.66Q42.08 17.80 41.44 17.24Q40.80 16.68 39.80 16.38Q38.80 16.08 37.24 16.08L37.24 16.08L31.24 16.08L31.24 28.96L28.80 28.96L28.80 1.60L31.24 1.60L31.24 13.92L37.64 13.92L37.56 14.20L37.60 14.20L37.64 13.92L37.76 13.92L45.52 1.28L47.60 2.56L40.32 14.28Q42.24 14.84 43.34 16.12Q44.44 17.40 45.08 19.12L45.08 19.12L48.60 28.96ZM53.20 1.60L55.64 1.60L55.64 28.96L53.20 28.96L53.20 1.60ZM63.24 1.60L65.68 1.60L65.68 28.96L63.24 28.96L63.24 1.60ZM92.32 28.96L89.68 28.96L86.88 21.84Q86.44 20.72 85.88 19.84Q85.32 18.96 84.54 18.34Q83.76 17.72 82.72 17.40Q81.68 17.08 80.32 17.08L80.32 17.08L76.48 17.08L76.48 28.96L74.04 28.96L74.04 3.72Q72.76 3.52 71.62 3Q70.48 2.48 69.68 1.36L69.68 1.36L71 0Q71.84 0.80 73 1.20Q74.16 1.60 75.76 1.60L75.76 1.60Q76.68 1.60 77.32 1.54Q77.96 1.48 78.60 1.40Q79.24 1.32 80.02 1.26Q80.80 1.20 82.08 1.20L82.08 1.20Q83.88 1.20 85.36 1.80Q86.84 2.40 87.90 3.46Q88.96 4.52 89.56 5.96Q90.16 7.40 90.16 9.12L90.16 9.12Q90.16 11.88 88.80 13.66Q87.44 15.44 85.12 16.16L85.12 16.16Q86.44 16.76 87.26 17.80Q88.08 18.84 88.72 20.32L88.72 20.32L92.32 28.96ZM81.96 3.40L81.96 3.40Q80.68 3.40 79.92 3.46Q79.16 3.52 78.62 3.58Q78.08 3.64 77.60 3.72Q77.12 3.80 76.48 3.80L76.48 3.80L76.48 14.88L82.04 14.88Q83.28 14.88 84.34 14.48Q85.40 14.08 86.16 13.34Q86.92 12.60 87.34 11.52Q87.76 10.44 87.76 9.12L87.76 9.12Q87.76 6.48 86.18 4.94Q84.60 3.40 81.96 3.40ZM122 0L123.32 1.36Q122.40 2.64 121 3.18Q119.60 3.72 118.16 3.80L118.16 3.80Q118.76 4.60 119.46 5.74Q120.16 6.88 120.76 8.32Q121.36 9.76 121.74 11.50Q122.12 13.24 122.12 15.28L122.12 15.28Q122.12 18.28 121.16 20.86Q120.20 23.44 118.42 25.32Q116.64 27.20 114.16 28.28Q111.68 29.36 108.64 29.36L108.64 29.36Q105.56 29.36 103.08 28.28Q100.60 27.20 98.82 25.30Q97.04 23.40 96.08 20.84Q95.12 18.28 95.12 15.28L95.12 15.28Q95.12 12.28 96.08 9.70Q97.04 7.12 98.82 5.24Q100.60 3.36 103.08 2.28Q105.56 1.20 108.64 1.20L108.64 1.20Q111.16 1.20 113.26 1.40Q115.36 1.60 117.24 1.60L117.24 1.60Q118.84 1.60 120 1.20Q121.16 0.80 122 0L122 0ZM119.72 15.28L119.72 15.28Q119.72 12.76 119.12 10.78Q118.52 8.80 117.74 7.34Q116.96 5.88 116.20 4.98Q115.44 4.08 115.12 3.76L115.12 3.76Q113.64 3.68 112.02 3.54Q110.40 3.40 108.60 3.40L108.60 3.40Q106.12 3.40 104.08 4.26Q102.04 5.12 100.60 6.70Q99.16 8.28 98.36 10.46Q97.56 12.64 97.56 15.28L97.56 15.28Q97.56 17.92 98.36 20.10Q99.16 22.28 100.62 23.84Q102.08 25.40 104.12 26.28Q106.16 27.16 108.64 27.16L108.64 27.16Q111.12 27.16 113.16 26.30Q115.20 25.44 116.66 23.86Q118.12 22.28 118.92 20.10Q119.72 17.92 119.72 15.28ZM148.12 28.96L145.56 28.96L142.76 20.64Q142.40 19.52 142 18.66Q141.60 17.80 140.96 17.24Q140.32 16.68 139.32 16.38Q138.32 16.08 136.76 16.08L136.76 16.08L130.76 16.08L130.76 28.96L128.32 28.96L128.32 1.60L130.76 1.60L130.76 13.92L137.16 13.92L137.08 14.20L137.12 14.20L137.16 13.92L137.28 13.92L145.04 1.28L147.12 2.56L139.84 14.28Q141.76 14.84 142.86 16.12Q143.96 17.40 144.60 19.12L144.60 19.12L148.12 28.96ZM161.20 0.84L161.96 0.84L173.92 28.96L171.36 28.96L167.48 19.88L155.68 19.88L151.88 28.96L149.32 28.96L161.20 0.84ZM160.60 8.28L156.64 17.60L166.52 17.60L162.56 8.28Q162.24 7.52 161.98 6.66Q161.72 5.80 161.56 5.16L161.56 5.16Q161.40 5.84 161.16 6.70Q160.92 7.56 160.60 8.28L160.60 8.28ZM178.12 1.60L180.56 1.60L180.56 28.96L178.12 28.96L178.12 1.60ZM188.16 1.60L190.60 1.60L190.60 28.96L188.16 28.96L188.16 1.60Z" transform="translate(0 65) scale(1)"></path></svg>